<svg xmlns="http://www.w3.org/2000/svg" viewBox="0 0 95 95"><defs><style>.cls-1{fill:#575757;}</style></defs><g id="Dashboard"><path class="cls-1" d="M47.5,95a47.5,47.5,0,0,1,0-95A48.32,48.32,0,0,1,86.9,21,49.14,49.14,0,0,1,95,47.5,47.56,47.56,0,0,1,47.5,95Zm0-90A42.5,42.5,0,1,0,90,47.5a43.89,43.89,0,0,0-7.24-23.73A43.24,43.24,0,0,0,47.5,5Z"/><path class="cls-1" d="M39.84,44a2.21,2.21,0,0,0,.16.84V43.2A2.21,2.21,0,0,0,39.84,44Z"/><path class="cls-1" d="M64.5,33.5H58V28a3.5,3.5,0,0,0-3.5-3.5h-24A3.5,3.5,0,0,0,27,28V58a3.5,3.5,0,0,0,3.5,3.5H37V67a3.5,3.5,0,0,0,3.5,3.5h24A3.5,3.5,0,0,0,68,67V37A3.5,3.5,0,0,0,64.5,33.5Zm-34,25A.5.5,0,0,1,30,58V28a.5.5,0,0,1,.5-.5h24a.5.5,0,0,1,.5.5V58a.5.5,0,0,1-.5.5ZM65,67a.5.5,0,0,1-.5.5h-24A.5.5,0,0,1,40,67V61.5H54.5A3.5,3.5,0,0,0,58,58V36.5h6.5a.5.5,0,0,1,.5.5Z"/><path class="cls-1" d="M51.84,44c0,.83-.42,1.5-1,1.5H40.79a.93.93,0,0,1-.79-.66,2.29,2.29,0,0,1,0-1.68.93.93,0,0,1,.79-.66h10.1C51.42,42.54,51.84,43.21,51.84,44Z"/><path class="cls-1" d="M51.84,34a1.5,1.5,0,0,1-1.5,1.5h-16a1.5,1.5,0,0,1,0-3h16a1.48,1.48,0,0,1,1.39,1A1.41,1.41,0,0,1,51.84,34Z"/><path class="cls-1" d="M51.84,39a1.5,1.5,0,0,1-1.5,1.5h-16a1.5,1.5,0,0,1,0-3h16A1.5,1.5,0,0,1,51.84,39Z"/><path class="cls-1" d="M51.84,44c0,.83-.42,1.5-1,1.5H40.79a.93.93,0,0,1-.79-.66,2.29,2.29,0,0,1,0-1.68.93.93,0,0,1,.79-.66h10.1C51.42,42.54,51.84,43.21,51.84,44Z"/></g></svg>