<svg xmlns="http://www.w3.org/2000/svg" viewBox="0 0 95 95"><defs><style>.cls-1{fill:#575757;}</style></defs><g id="Dashboard"><path class="cls-1" d="M47.5,95a47.5,47.5,0,0,1,0-95A48.32,48.32,0,0,1,86.9,21,49.14,49.14,0,0,1,95,47.5,47.56,47.56,0,0,1,47.5,95Zm0-90A42.5,42.5,0,1,0,90,47.5a43.89,43.89,0,0,0-7.24-23.73A43.24,43.24,0,0,0,47.5,5Z"/><path class="cls-1" d="M66.64,47.5a2.4,2.4,0,0,1-2.39,2.39H49.89V64.25a2.39,2.39,0,0,1-4.78,0V49.89H30.75a2.39,2.39,0,0,1,0-4.78H45.11V30.75a2.42,2.42,0,0,1,.7-1.69,2.39,2.39,0,0,1,4.08,1.69V45.11H64.25a2.42,2.42,0,0,1,1.69.7A2.39,2.39,0,0,1,66.64,47.5Z"/></g></svg>