<?xml version="1.0" encoding="utf-8"?>
<!-- Generator: Adobe Illustrator 27.2.0, SVG Export Plug-In . SVG Version: 6.00 Build 0)  -->
<svg version="1.1" xmlns="http://www.w3.org/2000/svg" xmlns:xlink="http://www.w3.org/1999/xlink" x="0px" y="0px"
	 viewBox="0 0 95 95" style="enable-background:new 0 0 95 95;" xml:space="preserve">
<style type="text/css">
	.st0{fill:#F6F6F6;}
	.st1{fill:#E2E6F1;}
	.st2{fill:#173551;}
	.st3{clip-path:url(#SVGID_00000026878004529613239670000006897896814893439417_);fill:#FAAF3B;}
	.st4{clip-path:url(#SVGID_00000026878004529613239670000006897896814893439417_);fill:#EC1C24;}
	.st5{fill:#FFFFFF;}
	.st6{fill:none;}
	.st7{clip-path:url(#SVGID_00000173133158523597694910000013855656244356683661_);fill:#E7B2B2;}
	.st8{clip-path:url(#SVGID_00000003096728253294801030000017148911570961730464_);}
	.st9{clip-path:url(#SVGID_00000107548887650201098800000000512207526773681322_);fill:none;stroke:#9D9D9D;stroke-miterlimit:10;}
	.st10{clip-path:url(#SVGID_00000036949780232472616270000014185100899091068547_);fill:none;stroke:#9D9D9D;stroke-miterlimit:10;}
	.st11{clip-path:url(#SVGID_00000132775134898067557030000005965951658952231559_);fill:none;stroke:#9D9D9D;stroke-miterlimit:10;}
	.st12{clip-path:url(#SVGID_00000042008583604838445920000014370525021270824858_);fill:none;stroke:#9D9D9D;stroke-miterlimit:10;}
	.st13{clip-path:url(#SVGID_00000110432910750074266190000000825498332427247534_);fill:none;stroke:#9D9D9D;stroke-miterlimit:10;}
	.st14{clip-path:url(#SVGID_00000134239969485762559540000012733608222333294745_);fill:none;stroke:#9D9D9D;stroke-miterlimit:10;}
	.st15{clip-path:url(#SVGID_00000059298502835205581050000009830582841313447091_);fill:none;stroke:#9D9D9D;stroke-miterlimit:10;}
	.st16{clip-path:url(#SVGID_00000170957364814412707620000002202455443491457198_);fill:none;stroke:#9D9D9D;stroke-miterlimit:10;}
	.st17{fill:#FAAF3B;}
	.st18{fill:#EC1C24;}
	.st19{fill:#E7B2B2;}
	.st20{fill:#3A3A3A;}
	.st21{fill:none;stroke:#DFDFDF;stroke-miterlimit:10;}
	.st22{fill:#163450;}
	.st23{fill:#E9E9E9;}
	.st24{fill:none;stroke:#9D9D9D;stroke-miterlimit:10;}
	.st25{fill:#545454;}
	.st26{opacity:0.4;}
	.st27{fill:#F6F6F6;stroke:#DFDFDF;stroke-miterlimit:10;}
	.st28{fill:#E9E9E9;stroke:#DFDFDF;stroke-miterlimit:10;}
	.st29{fill:none;stroke:#DFDFDF;stroke-width:2;stroke-miterlimit:10;}
	.st30{fill:#FFFFFF;stroke:#DFDFDF;stroke-miterlimit:10;}
	.st31{fill:#39B44A;}
	.st32{fill:none;stroke:#163351;stroke-width:2;stroke-miterlimit:10;stroke-dasharray:12.0344,12.0344;}
	.st33{fill:#2BB613;stroke:#DFDFDF;stroke-miterlimit:10;}
	.st34{fill:#173452;}
	.st35{fill:#F6F6F6;stroke:#666666;stroke-miterlimit:10;}
	.st36{fill:#E9E9E9;stroke:#666666;stroke-miterlimit:10;}
	.st37{fill:#9D9D9D;}
	.st38{fill:none;stroke:#E9E9E9;stroke-miterlimit:10;}
	.st39{fill:none;stroke:#173452;stroke-width:3;stroke-miterlimit:10;}
	.st40{fill:#5A97CA;}
	.st41{fill:#FFFFFF;stroke:#5A97CA;stroke-width:2;stroke-miterlimit:10;}
</style>
<g id="Layer_9">
</g>
<g id="FAQs">
</g>
<g id="View_Details">
</g>
<g id="Create">
</g>
<g id="Edit">
</g>
<g id="Search">
</g>
<g id="Login">
</g>
<g id="Dashboard">
	<g>
		<path class="st2" d="M47.5,95C21.31,95,0,73.69,0,47.5S21.31,0,47.5,0C63,0,78.1,8.03,86.9,20.96C88.8,23.75,95,33.92,95,47.5
			C95,73.69,73.69,95,47.5,95z M47.5,5C24.07,5,5,24.07,5,47.5S24.07,90,47.5,90S90,70.93,90,47.5c0-12.15-5.54-21.24-7.24-23.73
			C74.88,12.19,61.37,5,47.5,5z"/>
		<g>
			<path class="st40" d="M66.64,47.5c0,1.32-1.08,2.39-2.39,2.39H49.89v14.35c0,1.32-1.08,2.39-2.39,2.39
				c-1.32,0-2.39-1.07-2.39-2.39V49.89H30.75c-1.32,0-2.39-1.07-2.39-2.39s1.07-2.39,2.39-2.39h14.35V30.75
				c0-0.66,0.27-1.26,0.7-1.69c0.43-0.43,1.03-0.7,1.69-0.7c1.31,0,2.39,1.07,2.39,2.39v14.35h14.35c0.66,0,1.26,0.27,1.69,0.7
				C66.37,46.24,66.64,46.84,66.64,47.5z"/>
		</g>
	</g>
</g>
<g id="Guides">
</g>
</svg>
