<?xml version="1.0" encoding="utf-8"?>
<!-- Generator: Adobe Illustrator 27.2.0, SVG Export Plug-In . SVG Version: 6.00 Build 0)  -->
<svg version="1.1" xmlns="http://www.w3.org/2000/svg" xmlns:xlink="http://www.w3.org/1999/xlink" x="0px" y="0px"
	 viewBox="0 0 95 95" style="enable-background:new 0 0 95 95;" xml:space="preserve">
<style type="text/css">
	.st0{fill:#F6F6F6;}
	.st1{fill:#E2E6F1;}
	.st2{fill:#173551;}
	.st3{clip-path:url(#SVGID_00000107573000872054187350000012240810716810988160_);fill:#FAAF3B;}
	.st4{clip-path:url(#SVGID_00000107573000872054187350000012240810716810988160_);fill:#EC1C24;}
	.st5{fill:#FFFFFF;}
	.st6{fill:none;}
	.st7{clip-path:url(#SVGID_00000182486513273505964420000001194825579072380824_);fill:#E7B2B2;}
	.st8{clip-path:url(#SVGID_00000168824550787570314960000010214897853351081886_);}
	.st9{clip-path:url(#SVGID_00000029019923049924207650000014825728884165967014_);fill:none;stroke:#9D9D9D;stroke-miterlimit:10;}
	.st10{clip-path:url(#SVGID_00000170964685153498236940000015239229640928576445_);fill:none;stroke:#9D9D9D;stroke-miterlimit:10;}
	.st11{clip-path:url(#SVGID_00000176020129454231692470000013491035968283567267_);fill:none;stroke:#9D9D9D;stroke-miterlimit:10;}
	.st12{clip-path:url(#SVGID_00000094619294178376448170000018356803435743523236_);fill:none;stroke:#9D9D9D;stroke-miterlimit:10;}
	.st13{clip-path:url(#SVGID_00000118362095385533478290000008073742349809192844_);fill:none;stroke:#9D9D9D;stroke-miterlimit:10;}
	.st14{clip-path:url(#SVGID_00000012467799744388464140000014366287360624701579_);fill:none;stroke:#9D9D9D;stroke-miterlimit:10;}
	.st15{clip-path:url(#SVGID_00000018959460898785912740000000116197430000604080_);fill:none;stroke:#9D9D9D;stroke-miterlimit:10;}
	.st16{clip-path:url(#SVGID_00000094602961135856416120000000150768400088195977_);fill:none;stroke:#9D9D9D;stroke-miterlimit:10;}
	.st17{fill:#FAAF3B;}
	.st18{fill:#EC1C24;}
	.st19{fill:#E7B2B2;}
	.st20{fill:#3A3A3A;}
	.st21{fill:none;stroke:#DFDFDF;stroke-miterlimit:10;}
	.st22{fill:#163450;}
	.st23{fill:#E9E9E9;}
	.st24{fill:none;stroke:#9D9D9D;stroke-miterlimit:10;}
	.st25{fill:#545454;}
	.st26{opacity:0.4;}
	.st27{fill:#F6F6F6;stroke:#DFDFDF;stroke-miterlimit:10;}
	.st28{fill:#E9E9E9;stroke:#DFDFDF;stroke-miterlimit:10;}
	.st29{fill:none;stroke:#DFDFDF;stroke-width:2;stroke-miterlimit:10;}
	.st30{fill:#FFFFFF;stroke:#DFDFDF;stroke-miterlimit:10;}
	.st31{fill:#39B44A;}
	.st32{fill:none;stroke:#163351;stroke-width:2;stroke-miterlimit:10;stroke-dasharray:12.0344,12.0344;}
	.st33{fill:#2BB613;stroke:#DFDFDF;stroke-miterlimit:10;}
	.st34{fill:#173452;}
	.st35{fill:#F6F6F6;stroke:#666666;stroke-miterlimit:10;}
	.st36{fill:#E9E9E9;stroke:#666666;stroke-miterlimit:10;}
	.st37{fill:#9D9D9D;}
	.st38{fill:none;stroke:#E9E9E9;stroke-miterlimit:10;}
	.st39{fill:none;stroke:#173452;stroke-width:3;stroke-miterlimit:10;}
	.st40{fill:#5A97CA;}
	.st41{fill:#FFFFFF;stroke:#5A97CA;stroke-width:2;stroke-miterlimit:10;}
</style>
<g id="Layer_9">
</g>
<g id="FAQs">
</g>
<g id="View_Details">
</g>
<g id="Create">
</g>
<g id="Edit">
</g>
<g id="Search">
</g>
<g id="Login">
</g>
<g id="Dashboard">
	<g>
		<path class="st2" d="M47.5,95C21.31,95,0,73.69,0,47.5S21.31,0,47.5,0C63,0,78.1,8.03,86.9,20.96C88.8,23.75,95,33.92,95,47.5
			C95,73.69,73.69,95,47.5,95z M47.5,5C24.07,5,5,24.07,5,47.5S24.07,90,47.5,90S90,70.93,90,47.5c0-12.15-5.54-21.24-7.24-23.73
			C74.88,12.19,61.37,5,47.5,5z"/>
		<g>
			<g>
				<path class="st40" d="M39.84,44.04c0,0.31,0.06,0.6,0.16,0.84V43.2C39.9,43.44,39.84,43.73,39.84,44.04z"/>
				<g>
					<path class="st40" d="M64.5,33.5H58V28c0-1.93-1.57-3.5-3.5-3.5h-24c-1.93,0-3.5,1.57-3.5,3.5v30c0,1.93,1.57,3.5,3.5,3.5H37
						V67c0,1.93,1.57,3.5,3.5,3.5h24c1.93,0,3.5-1.57,3.5-3.5V37C68,35.07,66.43,33.5,64.5,33.5z M30.5,58.5
						c-0.28,0-0.5-0.22-0.5-0.5V28c0-0.28,0.22-0.5,0.5-0.5h24c0.27,0,0.5,0.22,0.5,0.5v30c0,0.28-0.23,0.5-0.5,0.5H30.5z M65,67
						c0,0.28-0.23,0.5-0.5,0.5h-24c-0.28,0-0.5-0.22-0.5-0.5v-5.5h14.5c1.93,0,3.5-1.57,3.5-3.5V36.5h6.5c0.27,0,0.5,0.22,0.5,0.5
						V67z"/>
					<path class="st40" d="M51.84,44.04c0,0.83-0.42,1.5-0.95,1.5h-10.1c-0.33,0-0.62-0.26-0.79-0.66c-0.1-0.24-0.16-0.53-0.16-0.84
						s0.06-0.6,0.16-0.84c0.17-0.4,0.46-0.66,0.79-0.66h10.1C51.42,42.54,51.84,43.21,51.84,44.04z"/>
				</g>
			</g>
			<path class="st40" d="M51.84,34.04c0,0.83-0.67,1.5-1.5,1.5h-16c-0.83,0-1.5-0.67-1.5-1.5c0-0.83,0.67-1.5,1.5-1.5h16
				c0.64,0,1.18,0.4,1.39,0.96C51.8,33.67,51.84,33.85,51.84,34.04z"/>
			<path class="st40" d="M51.84,39.04c0,0.83-0.67,1.5-1.5,1.5h-16c-0.83,0-1.5-0.67-1.5-1.5c0-0.83,0.67-1.5,1.5-1.5h16
				C51.17,37.54,51.84,38.21,51.84,39.04z"/>
			<path class="st40" d="M51.84,44.04c0,0.83-0.42,1.5-0.95,1.5h-10.1c-0.33,0-0.62-0.26-0.79-0.66c-0.1-0.24-0.16-0.53-0.16-0.84
				s0.06-0.6,0.16-0.84c0.17-0.4,0.46-0.66,0.79-0.66h10.1C51.42,42.54,51.84,43.21,51.84,44.04z"/>
		</g>
	</g>
</g>
<g id="Guides">
</g>
</svg>
