<?xml version="1.0" encoding="utf-8"?>
<!-- Generator: Adobe Illustrator 27.2.0, SVG Export Plug-In . SVG Version: 6.00 Build 0)  -->
<svg version="1.1" xmlns="http://www.w3.org/2000/svg" xmlns:xlink="http://www.w3.org/1999/xlink" x="0px" y="0px"
	 viewBox="0 0 95 95" style="enable-background:new 0 0 95 95;" xml:space="preserve">
<style type="text/css">
	.st0{fill:#F6F6F6;}
	.st1{fill:#E2E6F1;}
	.st2{fill:#173551;}
	.st3{clip-path:url(#SVGID_00000140011756254473984450000012657904058691189898_);fill:#FAAF3B;}
	.st4{clip-path:url(#SVGID_00000140011756254473984450000012657904058691189898_);fill:#EC1C24;}
	.st5{fill:#FFFFFF;}
	.st6{fill:none;}
	.st7{clip-path:url(#SVGID_00000014594242181503113900000018335776141909290911_);fill:#E7B2B2;}
	.st8{clip-path:url(#SVGID_00000097502843251570351760000015184948390625161601_);}
	.st9{clip-path:url(#SVGID_00000025437849761923698330000000884556551758625431_);fill:none;stroke:#9D9D9D;stroke-miterlimit:10;}
	.st10{clip-path:url(#SVGID_00000067941535617446963370000002235846434061637028_);fill:none;stroke:#9D9D9D;stroke-miterlimit:10;}
	.st11{clip-path:url(#SVGID_00000032640875239005214780000001407716325896898494_);fill:none;stroke:#9D9D9D;stroke-miterlimit:10;}
	.st12{clip-path:url(#SVGID_00000096781620948679090550000010612072580925500323_);fill:none;stroke:#9D9D9D;stroke-miterlimit:10;}
	.st13{clip-path:url(#SVGID_00000124864340124843087090000009069020410635738760_);fill:none;stroke:#9D9D9D;stroke-miterlimit:10;}
	.st14{clip-path:url(#SVGID_00000168819299716294933640000004067585965360482971_);fill:none;stroke:#9D9D9D;stroke-miterlimit:10;}
	.st15{clip-path:url(#SVGID_00000026856840373332719940000000556136362917502632_);fill:none;stroke:#9D9D9D;stroke-miterlimit:10;}
	.st16{clip-path:url(#SVGID_00000160882226548500413470000008021134032671683492_);fill:none;stroke:#9D9D9D;stroke-miterlimit:10;}
	.st17{fill:#FAAF3B;}
	.st18{fill:#EC1C24;}
	.st19{fill:#E7B2B2;}
	.st20{fill:#3A3A3A;}
	.st21{fill:none;stroke:#DFDFDF;stroke-miterlimit:10;}
	.st22{fill:#163450;}
	.st23{fill:#E9E9E9;}
	.st24{fill:none;stroke:#9D9D9D;stroke-miterlimit:10;}
	.st25{fill:#545454;}
	.st26{opacity:0.4;}
	.st27{fill:#F6F6F6;stroke:#DFDFDF;stroke-miterlimit:10;}
	.st28{fill:#E9E9E9;stroke:#DFDFDF;stroke-miterlimit:10;}
	.st29{fill:none;stroke:#DFDFDF;stroke-width:2;stroke-miterlimit:10;}
	.st30{fill:#FFFFFF;stroke:#DFDFDF;stroke-miterlimit:10;}
	.st31{fill:#39B44A;}
	.st32{fill:none;stroke:#163351;stroke-width:2;stroke-miterlimit:10;stroke-dasharray:12.0344,12.0344;}
	.st33{fill:#2BB613;stroke:#DFDFDF;stroke-miterlimit:10;}
	.st34{fill:#173452;}
	.st35{fill:#F6F6F6;stroke:#666666;stroke-miterlimit:10;}
	.st36{fill:#E9E9E9;stroke:#666666;stroke-miterlimit:10;}
	.st37{fill:#9D9D9D;}
	.st38{fill:none;stroke:#E9E9E9;stroke-miterlimit:10;}
	.st39{fill:none;stroke:#173452;stroke-width:3;stroke-miterlimit:10;}
	.st40{fill:#5A97CA;}
	.st41{fill:#FFFFFF;stroke:#5A97CA;stroke-width:2;stroke-miterlimit:10;}
</style>
<g id="Layer_9">
</g>
<g id="FAQs">
</g>
<g id="View_Details">
</g>
<g id="Create">
</g>
<g id="Edit">
</g>
<g id="Search">
</g>
<g id="Login">
</g>
<g id="Dashboard">
	<g>
		<path class="st2" d="M47.5,95C21.31,95,0,73.69,0,47.5S21.31,0,47.5,0C63,0,78.1,8.03,86.9,20.96C88.8,23.75,95,33.92,95,47.5
			C95,73.69,73.69,95,47.5,95z M47.5,5C24.07,5,5,24.07,5,47.5S24.07,90,47.5,90S90,70.93,90,47.5c0-12.15-5.54-21.24-7.24-23.73
			C74.88,12.19,61.37,5,47.5,5z"/>
		<g>
			<g>
				<path class="st40" d="M32.28,63.61c-2.24,0-4.07-1.82-4.07-4.06v-4.38c0-2.24,1.82-4.07,4.07-4.07s4.07,1.82,4.07,4.07v4.38
					C36.35,61.78,34.52,63.61,32.28,63.61z M32.28,53.1c-1.14,0-2.07,0.93-2.07,2.07v4.38c0,1.14,0.93,2.06,2.07,2.06
					s2.07-0.93,2.07-2.06v-4.38C34.35,54.02,33.42,53.1,32.28,53.1z"/>
			</g>
			<g>
				<path class="st40" d="M42.5,63.61c-2.24,0-4.07-1.82-4.07-4.06V47.28c0-2.24,1.82-4.07,4.07-4.07s4.07,1.82,4.07,4.07v12.26
					C46.56,61.78,44.74,63.61,42.5,63.61z M42.5,45.22c-1.14,0-2.07,0.93-2.07,2.07v12.26c0,1.14,0.93,2.06,2.07,2.06
					s2.07-0.93,2.07-2.06V47.28C44.56,46.14,43.64,45.22,42.5,45.22z"/>
			</g>
			<g>
				<path class="st40" d="M52.72,63.61c-2.24,0-4.07-1.82-4.07-4.06v-8.58c0-2.24,1.82-4.07,4.07-4.07s4.07,1.82,4.07,4.07v8.58
					C56.78,61.78,54.96,63.61,52.72,63.61z M52.72,48.89c-1.14,0-2.07,0.93-2.07,2.07v8.58c0,1.14,0.93,2.06,2.07,2.06
					s2.07-0.93,2.07-2.06v-8.58C54.78,49.82,53.86,48.89,52.72,48.89z"/>
			</g>
			<g>
				<path class="st40" d="M62.93,63.61c-2.24,0-4.07-1.82-4.07-4.06V42.68c0-2.24,1.82-4.07,4.07-4.07S67,40.44,67,42.68v16.86
					C67,61.78,65.18,63.61,62.93,63.61z M62.93,40.62c-1.14,0-2.07,0.93-2.07,2.07v16.86c0,1.14,0.93,2.06,2.07,2.06
					S65,60.68,65,59.54V42.68C65,41.54,64.07,40.62,62.93,40.62z"/>
			</g>
			<path class="st40" d="M63.98,29.01c0.81,0.81,0.82,2.12,0.02,2.94L51.74,44.58c-0.74,0.76-1.93,0.84-2.75,0.18l-6.18-4.94
				c-0.81-0.65-1.97-0.59-2.71,0.13l-7.61,7.36c-0.82,0.8-2.14,0.77-2.93-0.07c-0.78-0.84-0.75-2.18,0.08-2.98l10.2-9.87
				c0.74-0.72,1.9-0.78,2.71-0.13l6.09,4.87c0.82,0.66,2.01,0.58,2.75-0.18l9.6-9.91C61.81,28.19,63.15,28.18,63.98,29.01
				L63.98,29.01z"/>
		</g>
	</g>
</g>
<g id="Guides">
</g>
</svg>
