<svg xmlns="http://www.w3.org/2000/svg" viewBox="0 0 95 95"><defs><style>.cls-1{fill:#575757;}</style></defs><g id="Dashboard"><path class="cls-1" d="M47.5,95a47.5,47.5,0,0,1,0-95A48.32,48.32,0,0,1,86.9,21,49.14,49.14,0,0,1,95,47.5,47.56,47.56,0,0,1,47.5,95Zm0-90A42.5,42.5,0,1,0,90,47.5a43.89,43.89,0,0,0-7.24-23.73A43.24,43.24,0,0,0,47.5,5Z"/><path class="cls-1" d="M32.28,63.61a4.07,4.07,0,0,1-4.06-4.07V55.16a4.07,4.07,0,0,1,8.13,0v4.38A4.08,4.08,0,0,1,32.28,63.61Zm0-10.51a2.06,2.06,0,0,0-2.06,2.06v4.38a2.07,2.07,0,1,0,4.13,0V55.16A2.07,2.07,0,0,0,32.28,53.1Z"/><path class="cls-1" d="M42.5,63.61a4.08,4.08,0,0,1-4.07-4.07V47.28a4.07,4.07,0,0,1,8.13,0V59.54A4.07,4.07,0,0,1,42.5,63.61Zm0-18.39a2.07,2.07,0,0,0-2.07,2.06V59.54a2.07,2.07,0,1,0,4.13,0V47.28A2.06,2.06,0,0,0,42.5,45.22Z"/><path class="cls-1" d="M52.72,63.61a4.08,4.08,0,0,1-4.07-4.07V51a4.07,4.07,0,1,1,8.13,0v8.58A4.07,4.07,0,0,1,52.72,63.61Zm0-14.72A2.07,2.07,0,0,0,50.65,51v8.58a2.07,2.07,0,1,0,4.13,0V51A2.07,2.07,0,0,0,52.72,48.89Z"/><path class="cls-1" d="M62.93,63.61a4.07,4.07,0,0,1-4.06-4.07V42.68a4.07,4.07,0,0,1,8.13,0V59.54A4.07,4.07,0,0,1,62.93,63.61Zm0-23a2.06,2.06,0,0,0-2.06,2.06V59.54a2.07,2.07,0,1,0,4.13,0V42.68A2.07,2.07,0,0,0,62.93,40.62Z"/><path class="cls-1" d="M64,29a2.1,2.1,0,0,1,0,2.93L51.74,44.58a2,2,0,0,1-2.75.18l-6.18-4.93A2,2,0,0,0,40.1,40l-7.6,7.35a2.05,2.05,0,0,1-2.93-.07,2.12,2.12,0,0,1,.08-3l10.19-9.87a2,2,0,0,1,2.71-.13l6.09,4.86a2,2,0,0,0,2.75-.18L61,29a2.1,2.1,0,0,1,3,0Z"/></g></svg>