<?xml version="1.0" encoding="UTF-8"?>
<svg id="Dashboard" xmlns="http://www.w3.org/2000/svg" viewBox="0 0 30 35">
  <defs>
    <style>
      .cls-1 {
        fill: #173452;
      }
    </style>
  </defs>
  <path class="cls-1" d="m29.49,23.82l-2.26-3.91v-7.68C27.23,5.48,21.75,0,15,0S2.77,5.48,2.77,12.23v7.68l-2.26,3.91c-.68,1.19-.68,2.61,0,3.8.68,1.19,1.91,1.9,3.28,1.9h4.93c.41,3.1,3.06,5.48,6.27,5.48s5.85-2.39,6.27-5.48h4.93c1.37,0,2.6-.71,3.28-1.9.69-1.18.69-2.61,0-3.8Zm-14.49,8.64c-1.8,0-3.31-1.27-3.7-2.95h7.4c-.39,1.69-1.9,2.95-3.7,2.95Zm12.3-6.11c-.11.19-.44.63-1.1.63H3.8c-.66,0-.99-.44-1.1-.63-.11-.19-.33-.69,0-1.27l2.32-4.01c.18-.32.28-.68.28-1.05v-7.79c0-5.35,4.35-9.7,9.7-9.7s9.7,4.35,9.7,9.7v7.79c0,.37.1.73.28,1.05l2.32,4.01c.33.57.11,1.08,0,1.27Z"/>
</svg>