<svg xmlns="http://www.w3.org/2000/svg" viewBox="0 0 95 95"><defs><style>.cls-1{fill:#173551;}.cls-2{fill:#5a97ca;}</style></defs><g id="Dashboard"><path class="cls-1" d="M47.5,95a47.5,47.5,0,0,1,0-95A48.32,48.32,0,0,1,86.9,21,49.14,49.14,0,0,1,95,47.5,47.56,47.56,0,0,1,47.5,95Zm0-90A42.5,42.5,0,1,0,90,47.5a43.89,43.89,0,0,0-7.24-23.73A43.24,43.24,0,0,0,47.5,5Z"/><path class="cls-2" d="M70.78,52.24A1.52,1.52,0,0,0,69,51.41,1.48,1.48,0,0,0,68,52.9a6.41,6.41,0,0,1-10.81,4.49,6.27,6.27,0,0,1-2-4.4,6.39,6.39,0,0,1,8-6.32,5.88,5.88,0,0,1,1.49.6,1.39,1.39,0,0,0-1,1.34,1.47,1.47,0,0,0,1.58,1.45H68a1.44,1.44,0,0,0,1.51-1.5c0-.64,0-1.28,0-1.93v-.27a6.11,6.11,0,0,0,0-1,1.41,1.41,0,0,0-1.5-1.23,1.44,1.44,0,0,0-1.29,1,9.41,9.41,0,0,0-4.11-1.52v-15A3.44,3.44,0,0,0,59.06,25H31.28a.83.83,0,0,0-.4,0l-.44.12a5,5,0,0,0-1.24.49,3.31,3.31,0,0,0-1.43,3q0,12.09,0,24.17l0,7.66H25.76a1.47,1.47,0,0,0-1.62,1.64c0,.75,0,1.5,0,2.26v.38A5,5,0,0,0,29.29,70h28a6,6,0,0,0,1.8-.26,5,5,0,0,0,3.58-4.84V62a9.18,9.18,0,0,0,7.78-6.43,9.42,9.42,0,0,0,.32-1.24,4.69,4.69,0,0,1,.11-.54V52.36ZM53.35,67.09h-24a2.05,2.05,0,0,1-2.27-1.72,11.93,11.93,0,0,1,0-1.59c0-.1,0-.2,0-.31H52.85A8.47,8.47,0,0,0,53.35,67.09Zm6.38-3.91c0,.64,0,1.29,0,1.94a2.1,2.1,0,0,1-1.78,1.94,1.72,1.72,0,0,1-1.35-.45,2.31,2.31,0,0,1-.79-1.67c0-.59,0-1.17,0-1.76v-.87a3.62,3.62,0,0,0,0-.46,1.42,1.42,0,0,0-1.33-1.31H30.63l.05-31.76c0-.76.08-.85.84-.85H58.88c.77,0,.85.08.85.85v15l-.09,0A9.18,9.18,0,0,0,53,49.05l0,.09s-.06,0-.09,0H44c-1.28,0-1.93.49-1.94,1.44a1.39,1.39,0,0,0,.36,1,2.16,2.16,0,0,0,1.56.48h8.23a9.34,9.34,0,0,0,7.51,9.84Z"/><path class="cls-2" d="M65.4,55.26a1.34,1.34,0,0,1-.43,1,1.38,1.38,0,0,1-1,.42,1.69,1.69,0,0,1-1.19-.54l-.45-.44c-.59-.57-1.18-1.15-1.73-1.77a2.15,2.15,0,0,1-.51-1.21,8.05,8.05,0,0,1,0-1.2v-1c0-.41,0-.8,0-1.2a1.49,1.49,0,0,1,1.47-1.56A1.48,1.48,0,0,1,63,49.36v.94c0,.59,0,1.18,0,1.78a.4.4,0,0,0,.1.22c.35.37.72.74,1.1,1.11l.65.66A1.64,1.64,0,0,1,65.4,55.26Z"/><path class="cls-2" d="M56.9,33.62a1.46,1.46,0,0,1-1.59,1.43H44a4.09,4.09,0,0,1-.61,0,1.44,1.44,0,0,1,0-2.85l.56,0H55.35A1.47,1.47,0,0,1,56.9,33.62Z"/><path class="cls-2" d="M56.9,42.09a1.29,1.29,0,0,1-.38,1,2,2,0,0,1-1.42.49H44a3.89,3.89,0,0,1-.6,0,1.44,1.44,0,0,1,0-2.86,5.43,5.43,0,0,1,.57,0H55.09C56.77,40.64,56.9,41.75,56.9,42.09Z"/><path class="cls-2" d="M40.6,32.87l-3.13,3c-.23.22-.46.45-.71.67a1.66,1.66,0,0,1-1.07.46,1.58,1.58,0,0,1-1.09-.5c-.64-.62-1.28-1.25-1.9-1.9a1.44,1.44,0,0,1-.07-2.06,1.4,1.4,0,0,1,1-.44h0a1.54,1.54,0,0,1,1.09.46c.29.29.58.6.87.91l.06.08,2.83-2.68a1.51,1.51,0,0,1,1.43-.49,1.46,1.46,0,0,1,.66,2.52Z"/><path class="cls-2" d="M40.72,41.69c-.27.3-.56.56-.84.83l-.24.22-2.79,2.64a1.5,1.5,0,0,1-2.32,0l-1.76-1.74a1.79,1.79,0,0,1-.53-1.08A1.46,1.46,0,0,1,33.64,41h0a1.7,1.7,0,0,1,1.18.54c.27.28.54.58.8.88l0,0L38.29,40a5,5,0,0,1,.48-.42,1.42,1.42,0,0,1,1.93.16A1.4,1.4,0,0,1,40.72,41.69Z"/><path class="cls-2" d="M40.84,50a2.79,2.79,0,0,1-.37.4l-3.59,3.41a1.73,1.73,0,0,1-1.19.56,1.7,1.7,0,0,1-1.17-.57l-1.79-1.76a1.46,1.46,0,1,1,2-2.09c.23.21.45.42.67.65s.18.2.26.32l.52-.49c.79-.75,1.53-1.47,2.31-2.17a1.73,1.73,0,0,1,1.17-.49,1.79,1.79,0,0,1,1.15.65A1.26,1.26,0,0,1,40.84,50Z"/></g></svg>